<?xml version="1.0" encoding="iso-8859-1"?>
<!-- Generator: Adobe Illustrator 19.0.0, SVG Export Plug-In . SVG Version: 6.00 Build 0)  -->
<svg version="1.1" id="Layer_1" xmlns="http://www.w3.org/2000/svg" xmlns:xlink="http://www.w3.org/1999/xlink" x="0px" y="0px"
	 viewBox="0 0 508 508" style="enable-background:new 0 0 508 508;" xml:space="preserve">
<circle style="fill:#90DFAA;" cx="254" cy="254" r="254"/>
<g>
	<path style="fill:#FFFFFF;" d="M127.2,402H70.4c-5.6,0-10-4.4-10-10V116c0-5.6,4.4-10,10-10h57.2c5.6,0,10,4.4,10,10v275.6
		C137.6,397.6,132.8,402,127.2,402z"/>
	<path style="fill:#FFFFFF;" d="M217.6,402h-56.8c-5.6,0-10-4.4-10-10V116c0-5.6,4.4-10,10-10H218c5.6,0,10,4.4,10,10v275.6
		C228,397.6,223.2,402,217.6,402z"/>
	<path style="fill:#FFFFFF;" d="M308,402h-56.8c-5.6,0-10-4.4-10-10V116c0-5.6,4.4-10,10-10h57.2c5.6,0,10,4.4,10,10v275.6
		C318.4,397.6,313.6,402,308,402z"/>
</g>
<rect x="72.8" y="124" style="fill:#84DBFF;" width="52.4" height="184.8"/>
<g>
	<rect x="81.2" y="134" style="fill:#54C0EB;" width="35.6" height="6.4"/>
	<rect x="81.2" y="152" style="fill:#54C0EB;" width="35.6" height="6.4"/>
	<rect x="81.2" y="169.6" style="fill:#54C0EB;" width="35.6" height="6.4"/>
	<rect x="81.2" y="187.6" style="fill:#54C0EB;" width="35.6" height="6.4"/>
	<rect x="81.2" y="205.2" style="fill:#54C0EB;" width="35.6" height="6.4"/>
	<rect x="81.2" y="222.8" style="fill:#54C0EB;" width="35.6" height="6.4"/>
	<rect x="81.2" y="240.8" style="fill:#54C0EB;" width="35.6" height="6.4"/>
	<rect x="81.2" y="258.4" style="fill:#54C0EB;" width="35.6" height="6.4"/>
	<rect x="81.2" y="276.4" style="fill:#54C0EB;" width="35.6" height="6.4"/>
	<rect x="81.2" y="294" style="fill:#54C0EB;" width="35.6" height="6.4"/>
</g>
<rect x="253.6" y="124" style="fill:#FFD05B;" width="52.4" height="184.8"/>
<g>
	<rect x="261.6" y="134" style="fill:#F9B54C;" width="35.6" height="6.4"/>
	<rect x="261.6" y="152" style="fill:#F9B54C;" width="35.6" height="6.4"/>
	<rect x="261.6" y="169.6" style="fill:#F9B54C;" width="35.6" height="6.4"/>
	<rect x="261.6" y="187.6" style="fill:#F9B54C;" width="35.6" height="6.4"/>
	<rect x="261.6" y="205.2" style="fill:#F9B54C;" width="35.6" height="6.4"/>
	<rect x="261.6" y="222.8" style="fill:#F9B54C;" width="35.6" height="6.4"/>
	<rect x="261.6" y="240.8" style="fill:#F9B54C;" width="35.6" height="6.4"/>
	<rect x="261.6" y="258.4" style="fill:#F9B54C;" width="35.6" height="6.4"/>
	<rect x="261.6" y="276.4" style="fill:#F9B54C;" width="35.6" height="6.4"/>
	<rect x="261.6" y="294" style="fill:#F9B54C;" width="35.6" height="6.4"/>
</g>
<rect x="163.2" y="124" style="fill:#FF7058;" width="52.4" height="184.8"/>
<g>
	<rect x="171.6" y="134" style="fill:#F1543F;" width="35.6" height="6.4"/>
	<rect x="171.6" y="152" style="fill:#F1543F;" width="35.6" height="6.4"/>
	<rect x="171.6" y="169.6" style="fill:#F1543F;" width="35.6" height="6.4"/>
	<rect x="171.6" y="187.6" style="fill:#F1543F;" width="35.6" height="6.4"/>
	<rect x="171.6" y="205.2" style="fill:#F1543F;" width="35.6" height="6.4"/>
	<rect x="171.6" y="222.8" style="fill:#F1543F;" width="35.6" height="6.4"/>
	<rect x="171.6" y="240.8" style="fill:#F1543F;" width="35.6" height="6.4"/>
	<rect x="171.6" y="258.4" style="fill:#F1543F;" width="35.6" height="6.4"/>
	<rect x="171.6" y="276.4" style="fill:#F1543F;" width="35.6" height="6.4"/>
	<rect x="171.6" y="294" style="fill:#F1543F;" width="35.6" height="6.4"/>
</g>
<circle style="fill:#E6E9EE;" cx="99.6" cy="356" r="18.8"/>
<circle style="fill:#324A5E;" cx="99.6" cy="356" r="14.4"/>
<path style="fill:#FFFFFF;" d="M439.6,393.6l-56,10.8c-5.6,1.2-10.8-2.4-12-8L318.8,126c-1.2-5.6,2.4-10.8,8-12l56-10.8
	c5.6-1.2,10.8,2.4,12,8L447.6,382C448.8,387.2,445.2,392.8,439.6,393.6z"/>
<rect x="349.97" y="124.777" transform="matrix(-0.9813 0.1924 -0.1924 -0.9813 787.0963 357.9166)" style="fill:#4CDBC4;" width="52.399" height="184.797"/>
<g>
	
		<rect x="342.831" y="136.428" transform="matrix(-0.9813 0.1924 -0.1924 -0.9813 741.3892 207.2603)" style="fill:#2C9984;" width="35.599" height="6.4"/>
	
		<rect x="346.377" y="153.598" transform="matrix(-0.9813 0.1924 -0.1924 -0.9813 751.7184 240.5967)" style="fill:#2C9984;" width="35.599" height="6.4"/>
	
		<rect x="349.612" y="171.237" transform="matrix(-0.9813 0.1924 -0.1924 -0.9813 761.5206 274.9232)" style="fill:#2C9984;" width="35.599" height="6.4"/>
	
		<rect x="353.158" y="188.407" transform="matrix(-0.9813 0.1924 -0.1924 -0.9813 771.8498 308.2596)" style="fill:#2C9984;" width="35.599" height="6.4"/>
	
		<rect x="356.781" y="205.953" transform="matrix(-0.9813 0.1924 -0.1924 -0.9813 782.4039 342.3272)" style="fill:#2C9984;" width="35.599" height="6.4"/>
	
		<rect x="360.015" y="223.608" transform="matrix(-0.9813 0.1924 -0.1924 -0.9813 792.2092 376.6854)" style="fill:#2C9984;" width="35.599" height="6.4"/>
	
		<rect x="363.561" y="240.778" transform="matrix(-0.9813 0.1924 -0.1924 -0.9813 802.5383 410.0218)" style="fill:#2C9984;" width="35.599" height="6.4"/>
	
		<rect x="366.796" y="258.421" transform="matrix(-0.9813 0.1924 -0.1924 -0.9813 812.3413 444.3562)" style="fill:#2C9984;" width="35.599" height="6.4"/>
	
		<rect x="370.418" y="275.987" transform="matrix(-0.9813 0.1924 -0.1924 -0.9813 822.8992 478.4634)" style="fill:#2C9984;" width="35.599" height="6.4"/>
	
		<rect x="373.572" y="293.23" transform="matrix(-0.9813 0.1924 -0.1924 -0.9813 832.4648 512.0199)" style="fill:#2C9984;" width="35.599" height="6.4"/>
</g>
<circle style="fill:#E6E9EE;" cx="402.8" cy="354" r="18.8"/>
<circle style="fill:#324A5E;" cx="402.8" cy="354" r="14.4"/>
<circle style="fill:#E6E9EE;" cx="279.6" cy="356" r="18.8"/>
<circle style="fill:#324A5E;" cx="279.6" cy="356" r="14.4"/>
<circle style="fill:#E6E9EE;" cx="189.2" cy="356" r="18.8"/>
<circle style="fill:#324A5E;" cx="189.2" cy="356" r="14.4"/>
<g>
</g>
<g>
</g>
<g>
</g>
<g>
</g>
<g>
</g>
<g>
</g>
<g>
</g>
<g>
</g>
<g>
</g>
<g>
</g>
<g>
</g>
<g>
</g>
<g>
</g>
<g>
</g>
<g>
</g>
</svg>
