<?xml version="1.0" encoding="iso-8859-1"?>
<!-- Generator: Adobe Illustrator 19.0.0, SVG Export Plug-In . SVG Version: 6.00 Build 0)  -->
<svg version="1.1" id="Layer_1" xmlns="http://www.w3.org/2000/svg" xmlns:xlink="http://www.w3.org/1999/xlink" x="0px" y="0px"
	 viewBox="0 0 505 505" style="enable-background:new 0 0 505 505;" xml:space="preserve">
<circle style="fill:#FFD05B;" cx="252.5" cy="252.5" r="252.5"/>
<polygon style="fill:#FFFFFF;" points="179.4,86.1 179.4,139.7 125.9,139.7 125.9,418.9 379.1,418.9 379.1,86.1 "/>
<polygon style="fill:#E6E9EE;" points="179.4,86.1 125.9,139.7 179.4,139.7 "/>
<path style="fill:#FF7058;" d="M252.5,337.5c0,2.7-0.2,5.5-0.6,8.1c-3.6,22.6-22.1,40.3-45,42.7c-1.8,0.2-3.6,0.3-5.5,0.3
	c-28.3,0-51.2-22.9-51.2-51.1c0-23.5,15.9-43.4,37.6-49.3c4.3-1.2,8.9-1.8,13.6-1.8c13.6,0,26,5.3,35.1,14
	C246.4,309.6,252.5,322.8,252.5,337.5z"/>
<path style="fill:#FFD05B;" d="M236.5,300.3l-35.1,37.2l-13.6-49.3c4.3-1.2,8.9-1.8,13.6-1.8C215,286.3,227.4,291.6,236.5,300.3z"/>
<path style="fill:#E6E9EE;" d="M252.5,337.5c0,2.7-0.2,5.5-0.6,8.1l-50.5-8.1l35.1-37.1C246.4,309.6,252.5,322.8,252.5,337.5z"/>
<path style="fill:#4CDBC4;" d="M251.9,345.6c-3.6,22.6-22.1,40.3-45,42.7l-5.5-50.8L251.9,345.6z"/>
<rect x="268.3" y="299.9" style="fill:#FFD05B;" width="15.4" height="13.6"/>
<rect x="268.3" y="330.6" style="fill:#4CDBC4;" width="15.4" height="13.6"/>
<rect x="268.3" y="361.4" style="fill:#FF7058;" width="15.4" height="13.6"/>
<g>
	<rect x="294.5" y="299.9" style="fill:#E6E9EE;" width="61.9" height="13.6"/>
	<rect x="294.5" y="330.6" style="fill:#E6E9EE;" width="61.9" height="13.6"/>
	<rect x="294.5" y="361.4" style="fill:#E6E9EE;" width="61.9" height="13.6"/>
</g>
<rect x="338.669" y="202.865" transform="matrix(0.7071 -0.7071 0.7071 0.7071 -59.3593 312.5229)" style="fill:#2B3B4E;" width="17.8" height="50.1"/>
<circle style="fill:#324A5E;" cx="300.4" cy="180.7" r="67.8"/>
<circle style="fill:#E6E9EE;" cx="300.4" cy="180.7" r="51.3"/>
<path style="fill:#FF7058;" d="M351.1,254.8l23.3-23.3c0.7-0.7,1.7-0.7,2.4,0l43.1,43.1c0.7,0.7,0.7,1.7,0,2.4l-23.3,23.3
	c-0.7,0.7-1.7,0.7-2.4,0l-43.1-43.1C350.5,256.5,350.5,255.4,351.1,254.8z"/>
<rect x="366.78" y="247.725" transform="matrix(-0.7071 -0.7071 0.7071 -0.7071 470.1389 726.4872)" style="fill:#E6E9EE;" width="37.5" height="36.3"/>
<g>
	<rect x="150.2" y="170.3" style="fill:#54C0EB;" width="15.9" height="61.7"/>
	<rect x="174.8" y="191.9" style="fill:#54C0EB;" width="15.9" height="40.1"/>
	<rect x="199.4" y="209.4" style="fill:#54C0EB;" width="15.9" height="22.6"/>
</g>
<g>
</g>
<g>
</g>
<g>
</g>
<g>
</g>
<g>
</g>
<g>
</g>
<g>
</g>
<g>
</g>
<g>
</g>
<g>
</g>
<g>
</g>
<g>
</g>
<g>
</g>
<g>
</g>
<g>
</g>
</svg>
