<?xml version="1.0" encoding="iso-8859-1"?>
<!-- Generator: Adobe Illustrator 19.0.0, SVG Export Plug-In . SVG Version: 6.00 Build 0)  -->
<svg version="1.1" id="Layer_1" xmlns="http://www.w3.org/2000/svg" xmlns:xlink="http://www.w3.org/1999/xlink" x="0px" y="0px"
	 viewBox="0 0 512 512" style="enable-background:new 0 0 512 512;" xml:space="preserve">
<circle style="fill:#FF314F;" cx="256" cy="256" r="256"/>
<path style="fill:#A30F44;" d="M262.74,511.912c136.001-3.515,245.608-113.097,249.168-249.087l-145.682-145.78l-23.297,31.927
	l-42.713-44.06l-7.237,6.608l-24.04-24.04l-33.051,13.369v22.411l73.821,73.821l-92.834,134.434l-4.546,10.969l-66.555,52.464
	L262.74,511.912z"/>
<path style="fill:#FEE187;" d="M358.141,398.222H153.859c-6.427,0-11.636-5.21-11.636-11.636V125.414
	c0-6.427,5.21-11.636,11.636-11.636h204.283c6.427,0,11.636,5.21,11.636,11.636v261.172
	C369.778,393.013,364.568,398.222,358.141,398.222z"/>
<path style="fill:#FFC61B;" d="M358.141,113.778H255.426v284.444h102.715c6.427,0,11.636-5.21,11.636-11.636V125.414
	C369.778,118.987,364.568,113.778,358.141,113.778z"/>
<polygon style="fill:#FFFFFF;" points="311.31,128 156.444,128 156.444,384 355.556,384 355.556,172.246 "/>
<polygon style="fill:#D0D1D3;" points="355.556,172.246 311.31,128 255.426,128 255.426,384 355.556,384 "/>
<polygon style="fill:#A6A8AA;" points="311.31,172.246 355.556,172.246 311.31,128 "/>
<path style="fill:#FFC61B;" d="M295.905,103.317h-19.453c0-11.295-9.157-20.452-20.452-20.452c-11.295,0-20.452,9.157-20.452,20.452
	h-19.453c-3.668,0-6.64,2.974-6.64,6.64v33.264c0,3.668,2.974,6.64,6.64,6.64h79.81c3.668,0,6.641-2.974,6.641-6.64v-33.264
	C302.545,106.289,299.572,103.317,295.905,103.317z M256,110.37c-3.894,0-7.053-3.158-7.053-7.052c0-3.894,3.158-7.052,7.053-7.052
	c3.894,0,7.052,3.158,7.052,7.052C263.052,107.211,259.894,110.37,256,110.37z"/>
<path style="fill:#EAA22F;" d="M295.905,103.317h-19.453c0-11.295-9.157-20.452-20.452-20.452c-0.193,0-0.381,0.024-0.574,0.029
	v13.428c0.193-0.016,0.378-0.059,0.574-0.059c3.894,0,7.052,3.158,7.052,7.052s-3.158,7.053-7.052,7.053
	c-0.197,0-0.381-0.041-0.574-0.059v39.552h40.479c3.668,0,6.641-2.974,6.641-6.64v-33.263
	C302.545,106.289,299.572,103.317,295.905,103.317z"/>
<g>
	<path style="fill:#386895;" d="M209.024,201.697h-33.616v-33.616h33.616V201.697z M180.579,196.525h23.273v-23.273h-23.273V196.525
		z"/>
	<path style="fill:#386895;" d="M209.024,258.586h-33.616V224.97h33.616V258.586z M180.579,253.414h23.273v-23.273h-23.273V253.414z
		"/>
	<path style="fill:#386895;" d="M209.024,315.475h-33.616v-33.616h33.616V315.475z M180.579,310.303h23.273V287.03h-23.273V310.303z
		"/>
</g>
<g>
	<rect x="227.556" y="177.476" style="fill:#A6A8AA;" width="56.606" height="4.003"/>
	<rect x="227.556" y="195.112" style="fill:#A6A8AA;" width="85.333" height="4.003"/>
	<rect x="227.556" y="234.365" style="fill:#A6A8AA;" width="85.333" height="4.003"/>
	<rect x="227.556" y="252.001" style="fill:#A6A8AA;" width="56.606" height="4.003"/>
	<rect x="227.556" y="291.254" style="fill:#A6A8AA;" width="113.778" height="4.003"/>
	<rect x="227.556" y="308.889" style="fill:#A6A8AA;" width="85.333" height="4.003"/>
</g>
<path style="fill:#FF314F;" d="M191.354,306.855c-0.883,0-1.764-0.336-2.438-1.01l-10.343-10.343c-1.346-1.346-1.346-3.529,0-4.875
	c1.346-1.346,3.529-1.346,4.875,0l7.906,7.906l23.421-23.421c1.346-1.346,3.529-1.346,4.875,0c1.346,1.346,1.346,3.529,0,4.875
	l-25.859,25.859C193.117,306.519,192.236,306.855,191.354,306.855z"/>
<g>
</g>
<g>
</g>
<g>
</g>
<g>
</g>
<g>
</g>
<g>
</g>
<g>
</g>
<g>
</g>
<g>
</g>
<g>
</g>
<g>
</g>
<g>
</g>
<g>
</g>
<g>
</g>
<g>
</g>
</svg>
