<?xml version="1.0" encoding="iso-8859-1"?>
<!-- Generator: Adobe Illustrator 19.0.0, SVG Export Plug-In . SVG Version: 6.00 Build 0)  -->
<svg version="1.1" id="Layer_1" xmlns="http://www.w3.org/2000/svg" xmlns:xlink="http://www.w3.org/1999/xlink" x="0px" y="0px"
	 viewBox="0 0 508 508" style="enable-background:new 0 0 508 508;" xml:space="preserve">
<circle style="fill:#324A5E;" cx="254" cy="254" r="254"/>
<path style="fill:#FF7058;" d="M366.8,429.6H141.2c-4.8,0-8.8-4-8.8-8.8V100.4c0-4.8,4-8.8,8.8-8.8h225.2c4.8,0,8.8,4,8.8,8.8v320.4
	C375.6,425.6,371.6,429.6,366.8,429.6z"/>
<polygon style="fill:#FFFFFF;" points="141.6,108.8 141.6,386.4 328,386.4 328,348 366.4,348 366.4,108.8 "/>
<polygon style="fill:#E6E9EE;" points="328,386.4 366.4,348 328,348 "/>
<path style="fill:#FFD05B;" d="M314.4,120.8H193.6c-2.4,0-4-2-4-4v-34c0-2.4,2-4,4-4h120.8c2.4,0,4,2,4,4v34
	C318.4,118.8,316.8,120.8,314.4,120.8z"/>
<rect x="153.6" y="137.2" style="fill:#84DBFF;" width="15.2" height="7.6"/>
<rect x="176.4" y="137.2" style="fill:#E6E9EE;" width="176" height="7.6"/>
<rect x="153.6" y="164.8" style="fill:#84DBFF;" width="15.2" height="7.6"/>
<rect x="176.4" y="164.8" style="fill:#E6E9EE;" width="176" height="7.6"/>
<rect x="153.6" y="192.8" style="fill:#84DBFF;" width="15.2" height="7.6"/>
<rect x="176.4" y="192.8" style="fill:#E6E9EE;" width="176" height="7.6"/>
<rect x="153.6" y="220.4" style="fill:#84DBFF;" width="15.2" height="7.6"/>
<rect x="176.4" y="220.4" style="fill:#E6E9EE;" width="176" height="7.6"/>
<rect x="153.6" y="248" style="fill:#84DBFF;" width="15.2" height="7.6"/>
<rect x="176.4" y="248" style="fill:#E6E9EE;" width="176" height="7.6"/>
<rect x="153.6" y="275.6" style="fill:#84DBFF;" width="15.2" height="7.6"/>
<rect x="176.4" y="275.6" style="fill:#E6E9EE;" width="176" height="7.6"/>
<g>
</g>
<g>
</g>
<g>
</g>
<g>
</g>
<g>
</g>
<g>
</g>
<g>
</g>
<g>
</g>
<g>
</g>
<g>
</g>
<g>
</g>
<g>
</g>
<g>
</g>
<g>
</g>
<g>
</g>
</svg>
