<?xml version="1.0" encoding="iso-8859-1"?>
<!-- Generator: Adobe Illustrator 19.0.0, SVG Export Plug-In . SVG Version: 6.00 Build 0)  -->
<svg version="1.1" id="Layer_1" xmlns="http://www.w3.org/2000/svg" xmlns:xlink="http://www.w3.org/1999/xlink" x="0px" y="0px"
	 viewBox="0 0 508 508" style="enable-background:new 0 0 508 508;" xml:space="preserve">
<circle style="fill:#FD8469;" cx="254" cy="254" r="254"/>
<path style="fill:#324A5E;" d="M375.6,432.4H132.4c-10,0-18.4-8-18.4-18.4V110.4c0-10,8-18.4,18.4-18.4h243.2c10,0,18.4,8,18.4,18.4
	V414C394,424,385.6,432.4,375.6,432.4z"/>
<polygon style="fill:#FFFFFF;" points="128.4,107.2 128.4,390 340,390 340,350.4 379.6,350.4 379.6,107.2 "/>
<polygon style="fill:#E6E9EE;" points="340,390 379.6,350.4 340,350.4 "/>
<path style="fill:#FFD05B;" d="M273.6,84c2.4-3.6,3.6-8,3.6-12.4c0-12.8-10.4-23.2-23.2-23.2c-12.8,0-23.2,10.4-23.2,23.2
	c0,4.8,1.2,8.8,3.6,12.4c-26.4,4.4-48.8,17.6-61.6,35.2h162.8C322.4,101.6,300,88.4,273.6,84z"/>
<g>
	<rect x="154.8" y="168" style="fill:#84DBFF;" width="198.4" height="10.4"/>
	<rect x="154.8" y="198.4" style="fill:#84DBFF;" width="198.4" height="10.4"/>
	<rect x="154.8" y="228.8" style="fill:#84DBFF;" width="198.4" height="10.4"/>
	<rect x="154.8" y="259.2" style="fill:#84DBFF;" width="198.4" height="10.4"/>
	<rect x="154.8" y="289.6" style="fill:#84DBFF;" width="198.4" height="10.4"/>
	<rect x="154.8" y="320" style="fill:#84DBFF;" width="102.8" height="10.4"/>
</g>
<g>
</g>
<g>
</g>
<g>
</g>
<g>
</g>
<g>
</g>
<g>
</g>
<g>
</g>
<g>
</g>
<g>
</g>
<g>
</g>
<g>
</g>
<g>
</g>
<g>
</g>
<g>
</g>
<g>
</g>
</svg>
