<?xml version="1.0" encoding="iso-8859-1"?>
<!-- Generator: Adobe Illustrator 19.0.0, SVG Export Plug-In . SVG Version: 6.00 Build 0)  -->
<svg version="1.1" id="Layer_1" xmlns="http://www.w3.org/2000/svg" xmlns:xlink="http://www.w3.org/1999/xlink" x="0px" y="0px"
	 viewBox="0 0 505 505" style="enable-background:new 0 0 505 505;" xml:space="preserve">
<circle style="fill:#FFD05B;" cx="252.5" cy="252.5" r="252.5"/>
<path style="fill:#324A5E;" d="M379.9,427H125.1c-2.6,0-4.7-2.1-4.7-4.7v-323c0-2.6,2.1-4.7,4.7-4.7H380c2.6,0,4.7,2.1,4.7,4.7v323
	C384.6,424.9,382.5,427,379.9,427z"/>
<polygon style="fill:#FFFFFF;" points="146.4,113.7 146.4,376.5 321.6,376.5 321.6,339.5 358.6,339.5 358.6,113.7 "/>
<polygon style="fill:#E6E9EE;" points="321.6,376.5 358.6,339.5 321.6,339.5 "/>
<path style="fill:#FF7058;" d="M273.3,84v-7.3c0-11.5-9.3-20.8-20.8-20.8c-11.5,0-20.8,9.3-20.8,20.8V84H195v42.6h115.1V84H273.3z"
	/>
<circle style="fill:#FFD05B;" cx="252.5" cy="76.8" r="10.4"/>
<rect x="175.7" y="180.4" style="fill:#84DBFF;" width="23.8" height="11"/>
<rect x="214.3" y="180.4" style="fill:#E6E9EE;" width="115" height="11"/>
<rect x="175.7" y="214.7" style="fill:#84DBFF;" width="23.8" height="11"/>
<rect x="214.3" y="214.7" style="fill:#E6E9EE;" width="115" height="11"/>
<rect x="175.7" y="249" style="fill:#84DBFF;" width="23.8" height="11"/>
<rect x="214.3" y="249" style="fill:#E6E9EE;" width="115" height="11"/>
<rect x="175.7" y="283.3" style="fill:#84DBFF;" width="23.8" height="11"/>
<rect x="214.3" y="283.3" style="fill:#E6E9EE;" width="115" height="11"/>
<g>
</g>
<g>
</g>
<g>
</g>
<g>
</g>
<g>
</g>
<g>
</g>
<g>
</g>
<g>
</g>
<g>
</g>
<g>
</g>
<g>
</g>
<g>
</g>
<g>
</g>
<g>
</g>
<g>
</g>
</svg>
