<?xml version="1.0" encoding="iso-8859-1"?>
<!-- Generator: Adobe Illustrator 19.0.0, SVG Export Plug-In . SVG Version: 6.00 Build 0)  -->
<svg version="1.1" id="Layer_1" xmlns="http://www.w3.org/2000/svg" xmlns:xlink="http://www.w3.org/1999/xlink" x="0px" y="0px"
	 viewBox="0 0 408.76 408.76" style="enable-background:new 0 0 408.76 408.76;" xml:space="preserve">
<g>
	<path style="fill:#FFBE00;" d="M204.385,408.76c-58.121,0-113.675-24.869-152.418-68.227
		C18.46,303.057,0.005,254.703,0.005,204.379C0.005,91.683,91.69,0,204.385,0c50.317,0,98.674,18.453,136.163,51.964
		c43.348,38.762,68.207,94.314,68.207,152.415C408.755,317.074,317.076,408.76,204.385,408.76"/>
	<path style="fill:#F4502A;" d="M377.759,204.377c0,10.962-1.021,21.69-2.98,32.091c-1.25,6.75-2.91,13.36-4.93,19.811
		c-20.391,65.09-78.11,113.66-148.079,120.609c-5.721,0.582-11.51,0.872-17.38,0.872c-6.67,0-13.261-0.38-19.731-1.11
		c-43.399-4.921-81.949-25.862-109.569-56.771c-0.26-0.29-0.519-0.591-0.79-0.881c-26.95-30.56-43.289-70.679-43.289-114.62
		c0-95.749,77.619-173.379,173.38-173.379c43.95,0,84.069,16.35,114.629,43.29c0.29,0.27,0.591,0.53,0.881,0.79
		C355.409,106.838,377.759,152.987,377.759,204.377"/>
	<path style="fill:#C29100;" d="M87.465,332.394c0.016,0.014,0.032,0.029,0.047,0.043C87.495,332.421,87.481,332.409,87.465,332.394
		 M74.309,319.009c4.097,4.644,8.442,9.07,13.009,13.251c-4.279-3.92-8.363-8.054-12.23-12.382
		C74.832,319.592,74.577,319.295,74.309,319.009 M72.824,317.304c0.008,0.009,0.016,0.019,0.024,0.028
		C72.84,317.322,72.832,317.313,72.824,317.304 M72.507,316.934c0.049,0.057,0.097,0.114,0.146,0.171
		C72.605,317.048,72.556,316.99,72.507,316.934 M72.162,316.528c0.062,0.073,0.124,0.146,0.187,0.219
		C72.285,316.674,72.224,316.602,72.162,316.528 M71.815,316.118c0.093,0.11,0.186,0.22,0.279,0.33
		C72.001,316.338,71.908,316.229,71.815,316.118 M161.573,36.324C86.521,55.384,31.004,123.394,31.004,204.37
		c0,42.567,15.335,81.551,40.788,111.722c-25.454-30.177-40.783-69.153-40.783-111.715C31.009,123.402,86.52,55.386,161.573,36.324"
		/>
	<path style="fill:#BA3D20;" d="M204.383,30.999c-14.775,0-29.117,1.848-42.81,5.325C86.52,55.386,31.009,123.402,31.009,204.377
		c0,42.562,15.329,81.538,40.783,111.715c0.008,0.009,0.015,0.017,0.022,0.026c0.093,0.11,0.186,0.22,0.279,0.33
		c0.023,0.027,0.044,0.052,0.068,0.08c0.063,0.074,0.124,0.146,0.187,0.219c0.053,0.062,0.106,0.125,0.159,0.187
		c0.048,0.057,0.098,0.114,0.146,0.171c0.057,0.066,0.114,0.133,0.171,0.199c0.008,0.01,0.016,0.019,0.024,0.028
		c0.484,0.563,0.97,1.121,1.461,1.677c0.267,0.286,0.522,0.583,0.779,0.869c3.867,4.328,7.951,8.462,12.23,12.382
		c0.049,0.045,0.098,0.089,0.146,0.134c0.017,0.015,0.03,0.028,0.047,0.043c1.624,1.483,3.274,2.932,4.953,4.353
		c-25.531-30.2-40.921-69.239-40.921-111.879c0-95.749,77.621-173.37,173.381-173.37c42.629,0,81.68,15.39,111.869,40.919
		C305.004,54.869,257.485,30.999,204.383,30.999"/>
	<path style="fill:#BA3D20;" d="M286.879,148.568l-0.005,0.005v13.951l-164.981,151.35l-0.004,0.004l62.769,62.771
		c6.471,0.729,13.061,1.11,19.731,1.11c5.87,0,11.66-0.29,17.38-0.872c69.969-6.949,127.688-55.519,148.079-120.609
		c2.02-6.45,3.68-13.061,4.93-19.811L286.879,148.568"/>
	<polyline style="fill:#FFFFFF;" points="286.874,148.565 286.874,313.874 121.884,313.874 121.884,94.885 233.194,94.885 
		286.874,148.565 	"/>
	<rect x="186.835" y="165.811" style="fill:#1CA4BA;" width="81.333" height="11.333"/>
	<rect x="186.835" y="214.564" style="fill:#1CA4BA;" width="81.333" height="11.333"/>
	<rect x="186.835" y="263.316" style="fill:#1CA4BA;" width="81.333" height="11.333"/>
	<path style="fill:#1CA4BA;" d="M175.502,190.478h-38v-38h38V190.478z M149.502,178.478h14v-14h-14V178.478z"/>
	<path style="fill:#1CA4BA;" d="M175.502,239.23h-38v-38h38V239.23z M149.502,227.23h14v-14h-14V227.23z"/>
	<path style="fill:#1CA4BA;" d="M175.502,287.983h-38v-38h38V287.983z M149.502,275.983h14v-14h-14V275.983z"/>
	<polyline style="fill:#C2C2C2;" points="252.194,113.885 257.788,161.971 286.874,162.525 286.874,148.574 286.874,148.565 
		252.194,113.885 	"/>
	<polygon style="fill:#E6E6E6;" points="286.874,148.564 233.194,94.885 238.791,142.968 	"/>
</g>
<g>
</g>
<g>
</g>
<g>
</g>
<g>
</g>
<g>
</g>
<g>
</g>
<g>
</g>
<g>
</g>
<g>
</g>
<g>
</g>
<g>
</g>
<g>
</g>
<g>
</g>
<g>
</g>
<g>
</g>
</svg>
