<?xml version="1.0" encoding="iso-8859-1"?>
<!-- Generator: Adobe Illustrator 19.0.0, SVG Export Plug-In . SVG Version: 6.00 Build 0)  -->
<svg version="1.1" id="Layer_1" xmlns="http://www.w3.org/2000/svg" xmlns:xlink="http://www.w3.org/1999/xlink" x="0px" y="0px"
	 viewBox="0 0 397.529 397.529" style="enable-background:new 0 0 397.529 397.529;" xml:space="preserve">
<circle style="fill:#FFD55C;" cx="178.462" cy="198.764" r="178.462"/>
<path style="fill:#FFB733;" d="M356.933,198.764c0,98.56-79.899,178.462-178.462,178.462c-36.529,0-70.496-10.978-98.779-29.858
	c-1.206-0.766-2.39-1.575-3.547-2.412c-2.486-1.721-4.923-3.52-7.308-5.388c-15.732-12.258-29.342-27.077-40.197-43.889h47.505
	V128.02c0-14.252,11.572-25.822,25.846-25.822h77.514V83.884c0-14.277,11.572-25.846,25.846-25.846h82.855
	c25.895,20.185,46.058,47.385,57.649,78.718C353.019,156.081,356.933,176.955,356.933,198.764z"/>
<path style="fill:#D9D8D7;" d="M371.692,58.041c-14.265,0-25.836,11.562-25.836,25.836v19.175h51.673V83.877
	C397.529,69.602,385.957,58.041,371.692,58.041z"/>
<path style="fill:#F2F2F2;" d="M205.346,58.041c-14.27,0-25.841,11.562-25.841,25.836v107.067h140.51
	c14.27,0,25.841-11.564,25.841-25.834V83.877c0-14.274,11.572-25.836,25.836-25.836H205.346z"/>
<path style="fill:#FF6D3B;" d="M228.236,104.985l-18.836,23.266c-12.852-10.407-14.831-29.258-4.428-42.105
	c5.846-7.222,13.977-11.097,23.264-11.097L228.236,104.985L228.236,104.985z"/>
<path style="fill:#D9D8D7;" d="M228.236,104.985l-2.612,29.824c-6.174-0.542-11.409-2.654-16.226-6.558L228.236,104.985z"/>
<path style="fill:#21D8DE;" d="M228.236,104.985l26.678-13.59c7.505,14.73,1.649,32.761-13.086,40.263
	c-5.216,2.656-10.366,3.658-16.202,3.148L228.236,104.985z"/>
<path style="fill:#3E4959;" d="M228.236,104.985V75.05c11.707,0,21.361,5.915,26.678,16.347L228.236,104.985z"/>
<g>
	<rect x="296.517" y="78.174" style="fill:#D9D8D7;" width="19.34" height="4.118"/>
	<rect x="318.942" y="78.174" style="fill:#D9D8D7;" width="8.121" height="4.118"/>
	<rect x="296.517" y="111.183" style="fill:#D9D8D7;" width="30.528" height="4.121"/>
	<rect x="322.24" y="127.7" style="fill:#D9D8D7;" width="4.822" height="4.116"/>
	<rect x="296.517" y="127.7" style="fill:#D9D8D7;" width="23.129" height="4.116"/>
	<rect x="296.517" y="94.683" style="fill:#D9D8D7;" width="5.649" height="4.118"/>
	<rect x="306.092" y="94.683" style="fill:#D9D8D7;" width="8.601" height="4.118"/>
	<rect x="318.449" y="94.683" style="fill:#D9D8D7;" width="8.596" height="4.118"/>
</g>
<path style="fill:#3E4959;" d="M290.826,80.236c0,2.863-2.316,5.184-5.179,5.184c-2.87,0-5.186-2.321-5.186-5.184
	s2.316-5.182,5.186-5.182C288.51,75.052,290.826,77.374,290.826,80.236z"/>
<path style="fill:#D9D8D7;" d="M290.826,96.743c0,2.86-2.316,5.182-5.179,5.182c-2.87,0-5.186-2.321-5.186-5.182
	c0-2.863,2.316-5.184,5.186-5.184C288.51,91.557,290.826,93.881,290.826,96.743z"/>
<path style="fill:#FF6D3B;" d="M290.826,113.246c0,2.86-2.316,5.182-5.179,5.182c-2.87,0-5.186-2.321-5.186-5.182
	c0-2.863,2.316-5.184,5.186-5.184C288.51,108.059,290.826,110.383,290.826,113.246z"/>
<path style="fill:#21D8DE;" d="M290.826,129.75c0,2.863-2.316,5.184-5.179,5.184c-2.87,0-5.186-2.321-5.186-5.184
	c0-2.86,2.316-5.182,5.186-5.182C288.51,124.566,290.826,126.89,290.826,129.75z"/>
<path style="fill:#FFFFFF;" d="M268.347,102.196c-14.27,0-25.841,11.567-25.841,25.836v193.499
	c0,14.272-11.567,25.836-25.836,25.836H76.158V128.032c0-14.27,11.567-25.836,25.836-25.836H268.347z"/>
<g>
	<rect x="94.91" y="211.072" style="fill:#D9D8D7;" width="16.374" height="17.28"/>
	<rect x="123.028" y="181.854" style="fill:#D9D8D7;" width="16.379" height="46.479"/>
	<rect x="151.138" y="194.604" style="fill:#D9D8D7;" width="16.374" height="33.723"/>
	<rect x="179.249" y="158.986" style="fill:#D9D8D7;" width="16.369" height="69.342"/>
	<rect x="207.36" y="169.152" style="fill:#D9D8D7;" width="16.379" height="59.175"/>
</g>
<g>
	<rect x="94.91" y="224.266" style="fill:#FF6D3B;" width="16.374" height="4.071"/>
	<rect x="123.028" y="217.374" style="fill:#FF6D3B;" width="16.379" height="10.949"/>
	<rect x="151.138" y="220.401" style="fill:#FF6D3B;" width="16.374" height="7.943"/>
	<rect x="179.249" y="211.983" style="fill:#FF6D3B;" width="16.369" height="16.34"/>
	<rect x="207.36" y="214.395" style="fill:#FF6D3B;" width="16.379" height="13.942"/>
</g>
<g>
	<rect x="94.91" y="204.032" style="fill:#21D8DE;" width="16.374" height="7.042"/>
	<rect x="123.028" y="159.97" style="fill:#21D8DE;" width="16.379" height="21.886"/>
	<rect x="151.138" y="190.124" style="fill:#21D8DE;" width="16.374" height="4.48"/>
	<rect x="179.249" y="148.574" style="fill:#21D8DE;" width="16.369" height="10.405"/>
	<rect x="207.36" y="142.297" style="fill:#21D8DE;" width="16.379" height="26.868"/>
</g>
<rect x="94.91" y="236.155" style="fill:#3E4959;" width="128.837" height="6.398"/>
<g>
	<rect x="132.726" y="261.534" style="fill:#D9D8D7;" width="90.88" height="3.737"/>
	<rect x="94.91" y="261.534" style="fill:#D9D8D7;" width="30.725" height="3.737"/>
	<rect x="94.91" y="273.103" style="fill:#D9D8D7;" width="128.689" height="3.732"/>
	<rect x="94.91" y="284.647" style="fill:#D9D8D7;" width="64.345" height="3.732"/>
	<path style="fill:#D9D8D7;" d="M294.178,165.11v-37.078c0-14.27-11.567-25.836-25.836-25.836
		c-14.265,0-25.836,11.567-25.836,25.836v62.914h77.509C305.75,190.944,294.178,179.38,294.178,165.11z"/>
	<path style="fill:#D9D8D7;" d="M76.158,321.531v25.836H50.321C64.591,347.367,76.158,335.803,76.158,321.531z"/>
	<path style="fill:#D9D8D7;" d="M216.667,347.367H50.321c-14.27,0-25.836-11.564-25.836-25.836v-25.863h166.356v25.863
		C190.841,335.803,202.405,347.362,216.667,347.367z"/>
</g>
<g>
</g>
<g>
</g>
<g>
</g>
<g>
</g>
<g>
</g>
<g>
</g>
<g>
</g>
<g>
</g>
<g>
</g>
<g>
</g>
<g>
</g>
<g>
</g>
<g>
</g>
<g>
</g>
<g>
</g>
</svg>
