<?xml version="1.0" encoding="iso-8859-1"?>
<!-- Generator: Adobe Illustrator 19.0.0, SVG Export Plug-In . SVG Version: 6.00 Build 0)  -->
<svg version="1.1" id="Layer_1" xmlns="http://www.w3.org/2000/svg" xmlns:xlink="http://www.w3.org/1999/xlink" x="0px" y="0px"
	 viewBox="0 0 408.759 408.759" style="enable-background:new 0 0 408.759 408.759;" xml:space="preserve">
<g>
	<path style="fill:#FFBE00;" d="M204.383,408.759c-58.121,0-113.675-24.867-152.417-68.225
		C18.46,303.057,0.005,254.703,0.005,204.381C0.005,91.685,91.69,0,204.383,0c50.319,0,98.676,18.455,136.165,51.964
		c43.348,38.762,68.207,94.316,68.207,152.417C408.755,317.076,317.074,408.759,204.383,408.759"/>
	<path style="fill:#F4502A;" d="M377.75,204.379c0,18.08-2.77,35.52-7.909,51.901c-16.511,52.71-57.5,94.59-109.662,112.29
		c-12.249,4.17-25.108,7-38.419,8.321l-0.12,0.009c-4.79,0.48-9.621,0.759-14.52,0.84c-0.91,0.009-1.821,0.02-2.74,0.02
		c-51.39,0-97.559-22.361-129.301-57.881c-0.259-0.29-0.519-0.591-0.789-0.881C47.339,288.439,31,248.319,31,204.379
		c0-95.749,77.619-173.38,173.38-173.38c43.949,0,84.069,16.35,114.631,43.29c0.29,0.27,0.589,0.53,0.879,0.79
		c35.13,31.42,57.38,76.929,57.851,127.659C377.75,203.28,377.75,203.828,377.75,204.379"/>
	<path style="fill:#C29100;" d="M74.526,319.256c0.125,0.142,0.249,0.281,0.375,0.422C74.777,319.538,74.652,319.396,74.526,319.256
		 M53.811,118.358c-0.032,0.057-0.066,0.115-0.098,0.172C53.745,118.473,53.778,118.415,53.811,118.358 M54.162,117.748
		c-0.063,0.109-0.128,0.221-0.19,0.33C54.034,117.969,54.099,117.857,54.162,117.748 M81.371,82.193
		c-10.49,10.559-19.631,22.467-27.139,35.432C61.74,104.66,70.882,92.754,81.371,82.193 M81.643,81.92
		c-0.076,0.077-0.153,0.154-0.23,0.23C81.49,82.074,81.567,81.997,81.643,81.92 M81.892,81.671c-0.035,0.034-0.076,0.076-0.111,0.11
		C81.82,81.743,81.854,81.709,81.892,81.671"/>
	<path style="fill:#BA3D20;" d="M204.383,31.001c-47.828,0-91.125,19.357-122.491,50.67c-0.038,0.038-0.072,0.072-0.111,0.11
		c-0.046,0.046-0.093,0.093-0.138,0.139c-0.076,0.077-0.153,0.154-0.23,0.23c-0.015,0.015-0.027,0.027-0.042,0.043
		c-10.49,10.56-19.631,22.466-27.139,35.432c-0.025,0.042-0.046,0.08-0.071,0.122c-0.063,0.109-0.128,0.221-0.19,0.33
		c-0.054,0.094-0.106,0.186-0.161,0.28c-0.032,0.057-0.066,0.115-0.098,0.172c-14.451,25.309-22.708,54.609-22.708,85.84
		c0,44.072,16.437,84.3,43.522,114.886c0.126,0.141,0.251,0.282,0.375,0.422c5.444,6.107,11.314,11.828,17.563,17.113
		c-25.53-30.2-40.919-69.241-40.919-111.881c0-95.749,77.619-173.368,173.38-173.368c42.631,0,81.68,15.39,111.87,40.919
		C305.004,54.871,257.484,31.001,204.383,31.001"/>
	<path style="fill:#C29100;" d="M278.51,361.148c-5.934,2.809-12.05,5.29-18.332,7.422c-2.297,0.782-4.615,1.517-6.954,2.203
		C261.96,368.214,270.408,364.986,278.51,361.148 M278.713,361.052c-0.018,0.009-0.04,0.019-0.058,0.027
		C278.674,361.07,278.693,361.062,278.713,361.052 M369.311,257.943c-0.002,0.006-0.006,0.017-0.008,0.024
		C369.305,257.96,369.308,257.95,369.311,257.943 M369.421,257.602c-0.005,0.016-0.01,0.033-0.016,0.049
		C369.411,257.633,369.415,257.619,369.421,257.602 M369.527,257.272c-0.005,0.016-0.01,0.03-0.015,0.046
		C369.517,257.304,369.522,257.286,369.527,257.272 M369.633,256.94c-0.005,0.016-0.01,0.032-0.015,0.048
		C369.622,256.971,369.627,256.958,369.633,256.94 M369.737,256.61c-0.004,0.013-0.008,0.026-0.012,0.038
		C369.729,256.634,369.733,256.624,369.737,256.61"/>
	<path style="fill:#BA3D20;" d="M142.935,126.324l-31.112,31.114l31.112,31.387l-31.112,31.112l31.118,31.383l-31.121,31.119
		l95.301,95.301c4.899-0.081,9.73-0.36,14.52-0.84l0.12-0.009c1.47-0.148,2.932-0.318,4.391-0.5
		c0.377-0.048,0.753-0.096,1.128-0.144c1.438-0.19,2.872-0.391,4.299-0.615c0.127-0.02,0.255-0.044,0.382-0.065
		c1.339-0.214,2.672-0.447,4.002-0.691c0.349-0.065,0.696-0.129,1.045-0.194c1.438-0.275,2.873-0.563,4.301-0.872l0.249-0.055
		c1.413-0.31,2.818-0.639,4.219-0.982c0.212-0.052,0.425-0.103,0.637-0.155c2.287-0.569,4.561-1.185,6.811-1.845
		c2.339-0.687,4.657-1.421,6.954-2.203c6.281-2.131,12.397-4.612,18.332-7.422c0.049-0.023,0.095-0.045,0.144-0.068
		c0.018-0.009,0.04-0.019,0.058-0.027c42.717-20.3,75.813-57.56,90.59-103.085c0.002-0.006,0.006-0.017,0.008-0.024
		c0.031-0.097,0.063-0.195,0.094-0.293c0.005-0.016,0.01-0.032,0.016-0.049c0.03-0.094,0.061-0.19,0.091-0.284
		c0.005-0.016,0.01-0.03,0.015-0.046c0.03-0.094,0.061-0.189,0.091-0.283c0.005-0.016,0.01-0.032,0.015-0.048
		c0.031-0.098,0.062-0.194,0.093-0.292c0.004-0.013,0.008-0.026,0.012-0.038c0.034-0.108,0.07-0.222,0.104-0.33
		c5.139-16.381,7.909-33.821,7.909-51.901c0-0.55,0-1.099-0.009-1.64l0,0l-74.36-74.36l-132.309,26.082L142.935,126.324"/>
	<circle style="fill:#1CA4BA;" cx="127.379" cy="141.88" r="22"/>
	<rect x="166.41" y="128.379" style="fill:#FFFFFF;" width="136.97" height="27"/>
	<circle style="fill:#1CA4BA;" cx="127.379" cy="204.38" r="22"/>
	<rect x="166.41" y="190.879" style="fill:#FFFFFF;" width="136.97" height="27"/>
	<circle style="fill:#1CA4BA;" cx="127.379" cy="266.88" r="22"/>
	<rect x="166.41" y="253.379" style="fill:#FFFFFF;" width="136.97" height="27"/>
</g>
<g>
</g>
<g>
</g>
<g>
</g>
<g>
</g>
<g>
</g>
<g>
</g>
<g>
</g>
<g>
</g>
<g>
</g>
<g>
</g>
<g>
</g>
<g>
</g>
<g>
</g>
<g>
</g>
<g>
</g>
</svg>
