<?xml version="1.0" encoding="iso-8859-1"?>
<!-- Generator: Adobe Illustrator 19.0.0, SVG Export Plug-In . SVG Version: 6.00 Build 0)  -->
<svg version="1.1" id="Layer_1" xmlns="http://www.w3.org/2000/svg" xmlns:xlink="http://www.w3.org/1999/xlink" x="0px" y="0px"
	 viewBox="0 0 482.2 482.2" style="enable-background:new 0 0 482.2 482.2;" xml:space="preserve">
<circle style="fill:#324A5E;" cx="241.1" cy="241.1" r="241.1"/>
<polygon style="fill:#FFFFFF;" points="305.6,95.9 126.8,95.9 126.8,386.3 355.4,386.3 355.4,145.8 305.6,145.8 "/>
<g>
	<rect x="151.7" y="241.3" style="fill:#ACB3BA;" width="178.7" height="10.9"/>
	<rect x="151.7" y="275.2" style="fill:#ACB3BA;" width="178.7" height="10.9"/>
	<rect x="151.7" y="309.1" style="fill:#ACB3BA;" width="178.7" height="10.9"/>
	<rect x="151.7" y="343" style="fill:#ACB3BA;" width="100.4" height="10.9"/>
</g>
<g>
	<rect x="282.6" y="183.4" style="fill:#FF7058;" width="16.3" height="27.2"/>
	<rect x="249.5" y="170.9" style="fill:#FF7058;" width="16.3" height="39.7"/>
	<rect x="216.4" y="155.1" style="fill:#FF7058;" width="16.3" height="55.5"/>
	<rect x="183.4" y="135.1" style="fill:#FF7058;" width="16.3" height="75.5"/>
</g>
<g>
	<polygon style="fill:#E6E9EE;" points="305.6,95.9 305.6,145.8 355.4,145.8 	"/>
	<polygon style="fill:#E6E9EE;" points="306.6,290.8 294.9,352.4 356.5,340.7 344.4,328.6 353.3,319.6 345.7,312 336.8,321 
		326.3,310.6 335.3,301.6 327.7,294 318.7,302.9 	"/>
</g>
<polygon style="fill:#324A5E;" points="297.7,337.8 294.9,352.4 309.5,349.7 "/>
<path style="fill:#2C9984;" d="M410.6,254.3l17.6,17.6l-65.5,65.5c-4.9,4.9-12.7,4.9-17.6,0l0,0c-4.9-4.9-4.9-12.7,0-17.6
	L410.6,254.3z"/>
<path style="fill:#4CDBC4;" d="M393.1,236.7l17.6,17.6l-65.5,65.5c-4.9,4.9-12.7,4.9-17.6,0l0,0c-4.9-4.9-4.9-12.7,0-17.6
	L393.1,236.7z"/>
<path style="fill:#2C9984;" d="M375.5,219.1l17.6,17.6l-65.5,65.4c-4.9,4.9-12.7,4.9-17.6,0l0,0c-4.9-4.9-4.9-12.7,0-17.6
	L375.5,219.1z"/>
<rect x="368.766" y="235.377" transform="matrix(0.7071 0.7071 -0.7071 0.7071 289.5279 -216.4277)" style="fill:#FFD05B;" width="74.499" height="11.8"/>
<path style="fill:#FF7058;" d="M383.9,210.8l52.7,52.7l20.8-20.8c1.3-1.3,1.3-3.3,0-4.6L409.3,190c-1.3-1.3-3.3-1.3-4.6,0
	L383.9,210.8z"/>
<g>
</g>
<g>
</g>
<g>
</g>
<g>
</g>
<g>
</g>
<g>
</g>
<g>
</g>
<g>
</g>
<g>
</g>
<g>
</g>
<g>
</g>
<g>
</g>
<g>
</g>
<g>
</g>
<g>
</g>
</svg>
